<svg xmlns="http://www.w3.org/2000/svg" xmlns:xlink="http://www.w3.org/1999/xlink" width="427.333" height="427.333" viewBox="0 0 427.333 427.333"><defs><style>.a{fill:url(#a);}.b{fill:url(#b);}.c{fill:url(#c);}.d{fill:url(#d);}.e{fill:url(#e);}.f{fill:url(#f);}.g{fill:url(#g);}.h{fill:url(#h);}.i{fill:url(#i);}.j{fill:url(#j);}.k{fill:url(#k);}.l{fill:url(#l);}.m{fill:url(#m);}.n{fill:url(#n);}.o{fill:url(#o);}.p{fill:url(#p);}.q{fill:url(#q);}.r{fill:url(#r);}.s{fill:url(#s);}.t{fill:url(#t);}.u{fill:url(#u);}.v{fill:url(#v);}.w{fill:url(#w);}.x{fill:url(#x);}.y{fill:url(#y);}.z{fill:url(#z);}</style><linearGradient id="a" x1="-0.153" y1="-0.055" x2="0.782" y2="0.909" gradientUnits="objectBoundingBox"><stop offset="0" stop-color="#fff5d9"/><stop offset="1" stop-color="#ffce47"/></linearGradient><linearGradient id="b" x1="0.186" y1="0.473" x2="0.617" y2="0.892" gradientUnits="objectBoundingBox"><stop offset="0" stop-color="#6fa953"/><stop offset="1" stop-color="#43765a"/></linearGradient><linearGradient id="c" x1="0.449" y1="0.16" x2="0.999" y2="0.728" gradientUnits="objectBoundingBox"><stop offset="0" stop-color="#e4e08e"/><stop offset="1" stop-color="#6fa953"/></linearGradient><linearGradient id="d" x1="0.007" y1="0.137" x2="0.928" y2="1.03" gradientUnits="objectBoundingBox"><stop offset="0" stop-color="#ffce47"/><stop offset="1" stop-color="#ff9356"/></linearGradient><linearGradient id="e" x1="0.212" y1="-0.057" x2="0.745" y2="0.46" gradientUnits="objectBoundingBox"><stop offset="0" stop-color="#ff9356"/><stop offset="1" stop-color="#ff755c"/></linearGradient><linearGradient id="f" x1="0.109" y1="0.006" x2="0.737" y2="0.615" gradientUnits="objectBoundingBox"><stop offset="0" stop-color="#7acbff"/><stop offset="1" stop-color="#45a2e0"/></linearGradient><linearGradient id="g" x1="-0.001" y1="0.27" x2="0.51" y2="0.797" gradientUnits="objectBoundingBox"><stop offset="0" stop-color="#ff755c"/><stop offset="1" stop-color="#ff4181"/></linearGradient><linearGradient id="h" x1="0.127" y1="-0.003" x2="1.362" y2="1.271" gradientUnits="objectBoundingBox"><stop offset="0" stop-color="#ff4181"/><stop offset="1" stop-color="#843561"/></linearGradient><linearGradient id="i" x1="0.744" y1="0.899" x2="-0.014" y2="-0.017" xlink:href="#a"/><linearGradient id="j" x1="0.797" y1="0.953" x2="-0.339" y2="0.013" xlink:href="#b"/><linearGradient id="k" x1="0.903" y1="0.737" x2="0.066" y2="-0.273" xlink:href="#c"/><linearGradient id="l" x1="0.989" y1="0.991" x2="-0.077" y2="0.108" xlink:href="#d"/><linearGradient id="m" x1="0.916" y1="0.637" x2="0.203" y2="0.047" xlink:href="#e"/><linearGradient id="n" x1="1.077" y1="0.892" x2="-0.239" y2="-0.198" xlink:href="#f"/><linearGradient id="o" x1="0.669" y1="0.954" x2="-0.125" y2="-0.005" xlink:href="#g"/><linearGradient id="p" x1="1.018" y1="1.022" x2="0.049" y2="-0.148" xlink:href="#h"/><linearGradient id="q" x1="0.636" y1="0.636" x2="0.444" y2="0.444" gradientUnits="objectBoundingBox"><stop offset="0" stop-color="#843561" stop-opacity="0"/><stop offset="1" stop-color="#3a2f4d"/></linearGradient><linearGradient id="r" x1="0.91" y1="6.747" x2="1.823" y2="6.747" gradientUnits="objectBoundingBox"><stop offset="0" stop-color="#ffe0ea"/><stop offset="1" stop-color="#ffc0d5"/></linearGradient><linearGradient id="s" x1="0" y1="0.5" x2="1" y2="0.5" xlink:href="#d"/><linearGradient id="t" x1="0.673" y1="0.673" x2="0.252" y2="0.252" xlink:href="#d"/><linearGradient id="u" x1="5.034" y1="24.196" x2="5.91" y2="24.196" gradientUnits="objectBoundingBox"><stop offset="0" stop-color="#2f73a0"/><stop offset="1" stop-color="#174461"/></linearGradient><linearGradient id="v" x1="-0.813" y1="2.524" x2="-0.71" y2="2.551" gradientUnits="objectBoundingBox"><stop offset="0" stop-color="#edf5ff"/><stop offset="1" stop-color="#c7e9ff"/></linearGradient><linearGradient id="w" x1="-0.808" y1="2.267" x2="-0.646" y2="2.309" xlink:href="#v"/><linearGradient id="x" x1="-1.244" y1="3.024" x2="-1.501" y2="3.024" xlink:href="#u"/><linearGradient id="y" x1="-1.3" y1="4.297" x2="-1.3" y2="4.491" gradientUnits="objectBoundingBox"><stop offset="0" stop-color="#7acbff" stop-opacity="0"/><stop offset="1" stop-color="#2f73a0"/></linearGradient><linearGradient id="z" x1="-0.813" y1="3.758" x2="-0.735" y2="4.094" xlink:href="#u"/></defs><g transform="translate(-41.333 -41.334)"><g transform="translate(84.608 84.608)"><g transform="translate(14.393 14.393)"><path class="a" d="M365.308,60.084,304.03,121.362A69.126,69.126,0,0,0,255,101.049V14.393A155.492,155.492,0,0,1,365.308,60.084Z" transform="translate(-99.001 -14.393)"/><path class="b" d="M121.362,146.143a69.126,69.126,0,0,0-20.313,49.03H14.393A155.492,155.492,0,0,1,60.084,84.865Z" transform="translate(-14.393 -39.174)"/><path class="c" d="M195.173,14.393v86.656a69.126,69.126,0,0,0-49.03,20.313L84.865,60.084A155.492,155.492,0,0,1,195.173,14.393Z" transform="translate(-39.174 -14.393)"/><path class="d" d="M437.591,195.173H350.935a69.126,69.126,0,0,0-20.313-49.03L391.9,84.865A155.492,155.492,0,0,1,437.591,195.173Z" transform="translate(-125.593 -39.174)"/><path class="e" d="M437.591,255A155.493,155.493,0,0,1,391.9,365.308L330.622,304.03A69.126,69.126,0,0,0,350.935,255Z" transform="translate(-125.593 -99.001)"/><path class="f" d="M121.362,304.03,60.084,365.308A155.492,155.492,0,0,1,14.393,255h86.656A69.126,69.126,0,0,0,121.362,304.03Z" transform="translate(-14.393 -99.001)"/><path class="g" d="M365.308,391.9A155.493,155.493,0,0,1,255,437.591V350.935a69.126,69.126,0,0,0,49.03-20.313Z" transform="translate(-99.001 -125.593)"/><path class="h" d="M195.173,350.935v86.656A155.492,155.492,0,0,1,84.865,391.9l61.278-61.278A69.126,69.126,0,0,0,195.173,350.935Z" transform="translate(-39.174 -125.593)"/><g transform="translate(37.664 37.664)"><path class="i" d="M338.679,107.141,304.03,141.789A69.126,69.126,0,0,0,255,121.476V72.484a117.979,117.979,0,0,1,83.679,34.657Z" transform="translate(-136.665 -72.484)"/><path class="j" d="M141.789,160.586a69.126,69.126,0,0,0-20.313,49.03H72.484a117.976,117.976,0,0,1,34.657-83.679Z" transform="translate(-72.484 -91.28)"/><path class="k" d="M209.616,72.484v48.992a69.126,69.126,0,0,0-49.03,20.313l-34.649-34.649A117.979,117.979,0,0,1,209.616,72.484Z" transform="translate(-91.28 -72.484)"/><path class="l" d="M399.927,209.616H350.935a69.126,69.126,0,0,0-20.313-49.03l34.649-34.649a117.979,117.979,0,0,1,34.657,83.679Z" transform="translate(-163.257 -91.28)"/><path class="m" d="M399.927,255a117.979,117.979,0,0,1-34.657,83.679L330.622,304.03A69.126,69.126,0,0,0,350.935,255Z" transform="translate(-163.257 -136.665)"/><path class="n" d="M141.789,304.03l-34.649,34.649A117.979,117.979,0,0,1,72.484,255h48.992A69.126,69.126,0,0,0,141.789,304.03Z" transform="translate(-72.484 -136.665)"/><path class="o" d="M338.679,365.271A117.978,117.978,0,0,1,255,399.927V350.935a69.126,69.126,0,0,0,49.03-20.313Z" transform="translate(-136.665 -163.257)"/><path class="p" d="M209.616,350.935v48.992a117.979,117.979,0,0,1-83.679-34.657l34.649-34.649A69.126,69.126,0,0,0,209.616,350.935Z" transform="translate(-91.28 -163.257)"/></g></g><path class="q" d="M335.206,118.166l-63.653,63.653a69.373,69.373,0,0,1-89.733,89.733L118.167,335.2A156.005,156.005,0,0,0,335.206,118.166Z" transform="translate(-36.491 -36.491)"/></g><g transform="translate(41.334 41.334)"><g transform="translate(0 146.771)"><path class="r" d="M43.5,353.735.442,474.18a7.332,7.332,0,0,0,9.372,9.373L130.259,440.5c24.03-24.03-62.731-110.791-86.76-86.761Z" transform="translate(0 -203.433)"/><path class="s" d="M284.075,266.839l-145.4,145.387a27.885,27.885,0,0,0-10.61-10.34c-6.318-3.5-16.2-1.584-23.039.491a2.887,2.887,0,0,1-3.436-3.958.016.016,0,0,0,.016-.016,28.048,28.048,0,0,0,1-2.644q.19-.641.38-1.283A.142.142,0,0,0,103,394.4a26.69,26.69,0,0,0,.76-4.164c.048-.459.08-.934.111-1.393q.059-1.148.022-2.3a27.063,27.063,0,0,0-5.248-15.186,27.514,27.514,0,0,0-5.859-5.859A27.107,27.107,0,0,0,75.3,360.274c-.459.032-.934.064-1.393.111a26.355,26.355,0,0,0-4.164.76.143.143,0,0,0-.08.016l-1.283.38c-.459.142-.9.3-1.346.475q-.641.238-1.283.523c-.016,0-.016,0-.032.016a2.887,2.887,0,0,1-3.958-3.436c2.075-6.841,3.99-16.705.491-23.023a27.71,27.71,0,0,0-10.34-10.625L197.3,180.068a16.772,16.772,0,0,1,23.7,0l12.367,12.367,38.335,38.335,12.367,12.367a16.772,16.772,0,0,1,0,23.7Z" transform="translate(-8.415 -175.163)"/><path class="t" d="M273.908,234.109,103.819,404.2a2.848,2.848,0,0,1-.032-2.438.016.016,0,0,0,.016-.016,62.805,62.805,0,0,0,2.153-8.17c.064-.475.095-.934.111-1.393a27.107,27.107,0,0,0-5.225-17.481,27.513,27.513,0,0,0-5.859-5.859A27.107,27.107,0,0,0,77.5,363.613c-.459.016-.918.048-1.393.111a23.769,23.769,0,0,0-4.164.76.143.143,0,0,0-.08.016c-.427.111-3.483,1.187-3.911,1.378-.016,0-.016,0-.032.016a2.845,2.845,0,0,1-2.438-.032L235.572,195.773Z" transform="translate(-10.614 -178.504)"/><path class="u" d="M24.755,478.329A60.4,60.4,0,0,0,9.714,467.335L.443,493.269a7.332,7.332,0,0,0,9.372,9.372l25.934-9.271A60.366,60.366,0,0,0,24.755,478.329Z" transform="translate(0 -222.522)"/></g><g transform="translate(167.385 0)"><g transform="translate(40.933)"><path class="v" d="M454.069,13.563,278.5,189.134l-25.683-25.683a14.336,14.336,0,0,1,0-20.273l15.361-15.361a35.354,35.354,0,0,0,10.355-25V83.677a35.353,35.353,0,0,1,23.768-33.4L445.871.475c7.948-2.758,14.147,7.139,8.2,13.088Z" transform="translate(-248.617 0)"/><path class="w" d="M459.85,15.729,284.279,191.3l25.683,25.683a14.336,14.336,0,0,0,20.273,0L345.6,201.622a35.354,35.354,0,0,1,25-10.355h19.141a35.353,35.353,0,0,0,33.4-23.768l49.8-143.572c2.758-7.948-7.139-14.147-13.087-8.2Z" transform="translate(-254.398 -2.166)"/><path class="x" d="M384.221,105.734,472.41,17.546a5.961,5.961,0,0,0,.406-8.1,5.83,5.83,0,0,0-8.51-.283L376.183,97.284a27.7,27.7,0,0,1-21.894,8.211,24.156,24.156,0,1,0,21.962,22.356A28.26,28.26,0,0,1,384.221,105.734Z" transform="translate(-261.488 -1.208)"/><path class="y" d="M277.041,134.813a35.361,35.361,0,0,1-8.865,14.856L252.816,165.03a14.336,14.336,0,0,0,0,20.273L278.5,210.986l25.683,25.683a14.336,14.336,0,0,0,20.273,0l15.361-15.361a35.344,35.344,0,0,1,14.856-8.865Z" transform="translate(-248.617 -21.852)"/></g><path class="z" d="M286.539,286.178,199.766,199.4l34.581-34.581a10.254,10.254,0,0,1,14.5,0l72.27,72.27a10.254,10.254,0,0,1,0,14.5Z" transform="translate(-199.766 -26.23)"/></g></g></g></svg>