<svg xmlns="http://www.w3.org/2000/svg" width="128.212" height="128.212" viewBox="0 0 128.212 128.212"><defs><style>.a{fill:#2a2628;}</style></defs><path class="a" d="M216.99,219.775l-18.611-26.883a2.068,2.068,0,0,0-3.4,0l-18.611,26.883a2.065,2.065,0,0,0-.261,1.83l5.3,15.889h-1.267a2.068,2.068,0,0,0-2.068,2.068v6.2a2.068,2.068,0,0,0,2.068,2.068H182.2v22.747a2.068,2.068,0,0,0,2.068,2.068h24.815a2.068,2.068,0,0,0,2.068-2.068V247.834h2.068a2.068,2.068,0,0,0,2.068-2.068v-6.2a2.068,2.068,0,0,0-2.068-2.068h-1.267l5.3-15.889A2.065,2.065,0,0,0,216.99,219.775Zm-20.312-2.96a2.068,2.068,0,1,1-2.068,2.068A2.068,2.068,0,0,1,196.678,216.815Zm10.34,51.7H186.339V247.834h20.679Zm4.136-24.815H182.2v-2.068h28.951Zm-3.559-6.2H185.762l-5.408-16.215,14.256-20.591V212.68a2.185,2.185,0,0,0,.031.346,6.2,6.2,0,1,0,4.074,0,2.178,2.178,0,0,0,.031-.346V200.688L213,221.28Z" transform="translate(-132.572 -144.438)"/><path class="a" d="M134.144,30.747h-8.272a2.068,2.068,0,0,0-2.068,2.068V34.9a2.134,2.134,0,0,0-.259-.018H78.31V32.815a2.068,2.068,0,0,0-2.068-2.068H74.174V20.408h2.068A2.068,2.068,0,0,0,78.31,18.34V10.068A2.068,2.068,0,0,0,76.242,8H67.97A2.068,2.068,0,0,0,65.9,10.068V18.34a2.068,2.068,0,0,0,2.068,2.068h2.068v10.34H67.97A2.068,2.068,0,0,0,65.9,32.815v2.068H20.408V32.815a2.068,2.068,0,0,0-2.068-2.068H10.068A2.068,2.068,0,0,0,8,32.815v8.272a2.068,2.068,0,0,0,2.068,2.068H18.34a2.068,2.068,0,0,0,2.068-2.068V39.019H54.6a32.347,32.347,0,0,0-7.235,6.553,35.957,35.957,0,0,0-8.342,22.4H36.951a2.068,2.068,0,0,0-2.068,2.068V78.31a2.068,2.068,0,0,0,2.068,2.068h8.272a2.068,2.068,0,0,0,2.068-2.068V70.038a2.068,2.068,0,0,0-2.068-2.068H43.155c0-15.334,11.8-27.429,22.747-28.817v1.934a2.068,2.068,0,0,0,2.068,2.068h8.272a2.068,2.068,0,0,0,2.068-2.068V39.146c5.6.664,10.973,4.02,15.31,9.616a36.3,36.3,0,0,1,7.364,19.209h-2a2.068,2.068,0,0,0-2.068,2.068V78.31a2.068,2.068,0,0,0,2.068,2.068h8.272a2.068,2.068,0,0,0,2.068-2.068V70.038a2.068,2.068,0,0,0-2.068-2.068h-2.133A39.927,39.927,0,0,0,96.89,46.226a32.671,32.671,0,0,0-7.6-7.207h34.255A2.135,2.135,0,0,0,123.8,39v2.086a2.068,2.068,0,0,0,2.068,2.068h8.272a2.068,2.068,0,0,0,2.068-2.068V32.815A2.068,2.068,0,0,0,134.144,30.747ZM16.272,39.019H12.136V34.883h4.136ZM43.155,76.242H39.019V72.106h4.136ZM70.038,12.136h4.136v4.136H70.038Zm4.136,26.883H70.038V34.883h4.136Zm26.883,33.087h4.136v4.136h-4.136Zm31.019-33.087H127.94V34.883h4.136Z" transform="translate(-8 -8)"/></svg>