<svg xmlns="http://www.w3.org/2000/svg" width="209.001" height="62.262" viewBox="0 0 209.001 62.262"><defs><style>.a{fill:#2a2628;}.b{fill:#cb2027;}</style></defs><g transform="translate(-196.841 -312.653)"><g transform="translate(196.841 334.063)"><path class="a" d="M202.61,545.275v9.231a2.187,2.187,0,0,0,.67,1.685,2.638,2.638,0,0,0,1.87.622h10.617v4.848H203.534a7.247,7.247,0,0,1-2.7-.486,6.5,6.5,0,0,1-2.123-1.339,5.921,5.921,0,0,1-1.387-1.984,6.118,6.118,0,0,1-.483-2.424V544.351a6.119,6.119,0,0,1,.483-2.424,5.945,5.945,0,0,1,1.387-1.984,6.5,6.5,0,0,1,2.123-1.339,7.245,7.245,0,0,1,2.7-.486h12.234v3.461l-1.387,1.386H205.15a2.638,2.638,0,0,0-1.87.622A2.187,2.187,0,0,0,202.61,545.275Z" transform="translate(-196.841 -528.656)"/><path class="a" d="M340.107,540.985a6.107,6.107,0,0,1,.483-2.422,5.954,5.954,0,0,1,1.386-1.986,6.583,6.583,0,0,1,2.123-1.339,7.249,7.249,0,0,1,2.7-.483h7.849a7.267,7.267,0,0,1,2.7.483,6.6,6.6,0,0,1,2.123,1.339,5.912,5.912,0,0,1,1.384,1.986,6.068,6.068,0,0,1,.486,2.422v12a6.061,6.061,0,0,1-.486,2.422,5.914,5.914,0,0,1-1.384,1.986,6.566,6.566,0,0,1-2.123,1.339,7.265,7.265,0,0,1-2.7.483H346.8a7.246,7.246,0,0,1-2.7-.483,6.545,6.545,0,0,1-2.123-1.339,5.956,5.956,0,0,1-1.386-1.986,6.1,6.1,0,0,1-.483-2.422Zm15.463,11.08V541.908a2.2,2.2,0,0,0-.668-1.685,2.642,2.642,0,0,0-1.87-.622h-4.615a2.638,2.638,0,0,0-1.87.622,2.194,2.194,0,0,0-.67,1.685v10.157a2.193,2.193,0,0,0,.67,1.685,2.638,2.638,0,0,0,1.87.623h4.615a2.642,2.642,0,0,0,1.87-.623A2.2,2.2,0,0,0,355.57,552.065Z" transform="translate(-320.489 -525.752)"/><path class="a" d="M529.886,474.071v32.312h-3.924l-.693-2.771h-.461a6.823,6.823,0,0,1-1.338,1.617,8.092,8.092,0,0,1-1.708,1.131,4.985,4.985,0,0,1-2.262.483h-4.155a7.245,7.245,0,0,1-2.7-.483,6.545,6.545,0,0,1-2.123-1.339,5.958,5.958,0,0,1-1.386-1.986,6.1,6.1,0,0,1-.483-2.422V489.073a6.118,6.118,0,0,1,.483-2.424,5.949,5.949,0,0,1,1.386-1.984,6.507,6.507,0,0,1,2.123-1.339,7.246,7.246,0,0,1,2.7-.486h8.77v-8.77Zm-5.771,13.618h-7.153a2.638,2.638,0,0,0-1.87.622,2.187,2.187,0,0,0-.67,1.685v9.694a2.193,2.193,0,0,0,.67,1.685,2.638,2.638,0,0,0,1.87.623h3.462a3.32,3.32,0,0,0,1.662-.392,4.623,4.623,0,0,0,1.154-.9,6.081,6.081,0,0,0,.876-1.245Z" transform="translate(-465.955 -473.378)"/><path class="a" d="M706.411,540.985v8.309h-15V551.6a2.187,2.187,0,0,0,.67,1.685,2.638,2.638,0,0,0,1.87.622h11.538v4.848H692.333a7.248,7.248,0,0,1-2.7-.486,6.506,6.506,0,0,1-2.123-1.339,5.922,5.922,0,0,1-1.386-1.984,6.118,6.118,0,0,1-.483-2.424V540.985a6.107,6.107,0,0,1,.483-2.422,5.954,5.954,0,0,1,1.386-1.986,6.583,6.583,0,0,1,2.123-1.339,7.249,7.249,0,0,1,2.7-.483h7.386a7.248,7.248,0,0,1,2.7.483,6.584,6.584,0,0,1,2.123,1.339,5.92,5.92,0,0,1,1.386,1.986A6.109,6.109,0,0,1,706.411,540.985Zm-15,.924v2.54h9.233v-2.54a2.194,2.194,0,0,0-.67-1.685,2.637,2.637,0,0,0-1.868-.622H693.95a2.638,2.638,0,0,0-1.87.622A2.194,2.194,0,0,0,691.409,541.908Z" transform="translate(-618.708 -525.752)"/><path class="a" d="M861.653,558.758h-5.769V535.216h3.922l.693,2.771h.461a6.871,6.871,0,0,1,1.339-1.617,8.085,8.085,0,0,1,1.708-1.131,4.992,4.992,0,0,1,2.262-.483h4.155a7.25,7.25,0,0,1,2.7.483,6.615,6.615,0,0,1,2.125,1.339,5.943,5.943,0,0,1,1.384,1.986,6.066,6.066,0,0,1,.483,2.422v17.773h-5.769V541.908a2.194,2.194,0,0,0-.67-1.685,2.636,2.636,0,0,0-1.868-.622h-3.464a3.327,3.327,0,0,0-1.66.392,5.287,5.287,0,0,0-1.154.855,7.271,7.271,0,0,0-.878,1.291Z" transform="translate(-765.641 -525.752)"/><path class="a" d="M1040.322,469.009v6.462h-5.769v-6.462Zm0,9.463v23.542h-5.769V478.472Z" transform="translate(-919.844 -469.009)"/><path class="a" d="M1106.052,558.758h-5.769V535.216h3.922l.693,2.771h.461a6.868,6.868,0,0,1,1.339-1.617,8.08,8.08,0,0,1,1.708-1.131,4.992,4.992,0,0,1,2.262-.483h4.154a7.247,7.247,0,0,1,2.7.483,6.619,6.619,0,0,1,2.126,1.339,5.946,5.946,0,0,1,1.384,1.986,6.062,6.062,0,0,1,.484,2.422v17.773h-5.769V541.908a2.193,2.193,0,0,0-.671-1.685,2.636,2.636,0,0,0-1.868-.622h-3.464a3.328,3.328,0,0,0-1.66.392,5.285,5.285,0,0,0-1.154.855,7.269,7.269,0,0,0-.878,1.291Z" transform="translate(-976.573 -525.752)"/><path class="a" d="M1253.671,478.472h5.772v25.159a6.08,6.08,0,0,1-.486,2.422,5.918,5.918,0,0,1-1.384,1.986,6.609,6.609,0,0,1-2.123,1.339,7.311,7.311,0,0,1-2.7.483H1248.6v-4.846h2.538a2.642,2.642,0,0,0,1.87-.623,2.2,2.2,0,0,0,.668-1.685Zm5.772-9.463v6.462h-5.772v-6.462Z" transform="translate(-1104.577 -469.009)"/><path class="a" d="M1363.771,561.661h-3.925l-.691-2.771h-.463a6.811,6.811,0,0,1-1.339,1.617,8.024,8.024,0,0,1-1.708,1.131,4.986,4.986,0,0,1-2.262.483h-3.692a7.249,7.249,0,0,1-2.7-.483,6.575,6.575,0,0,1-2.125-1.339,5.949,5.949,0,0,1-1.384-1.986,6.057,6.057,0,0,1-.483-2.422v-2.54a6.083,6.083,0,0,1,.483-2.424,5.96,5.96,0,0,1,1.384-1.984,6.572,6.572,0,0,1,2.125-1.339,7.252,7.252,0,0,1,2.7-.486H1358v-1.614a2.245,2.245,0,0,0-2.54-2.538h-10.387v-4.848h12a7.261,7.261,0,0,1,2.7.486,6.526,6.526,0,0,1,2.123,1.339,5.913,5.913,0,0,1,1.384,1.984,6.078,6.078,0,0,1,.486,2.424Zm-9.463-4.385a3.319,3.319,0,0,0,1.662-.392,4.622,4.622,0,0,0,1.154-.9,6.2,6.2,0,0,0,.878-1.245v-2.771h-6.925a2.147,2.147,0,0,0-2.308,2.308v.693a2.147,2.147,0,0,0,2.308,2.308Z" transform="translate(-1186.055 -528.656)"/></g><g transform="translate(365.08 312.653)"><path class="b" d="M1442.13,327.516l-11.2-3.684,11.194-3.793,2.5-7.387-19.152,7.66v6.938l19.1,7.493Z" transform="translate(-1425.476 -312.653)"/><path class="b" d="M1586.423,320.291l11.181,3.788-11.185,3.679-2.366,7.194,19.007-7.455V320.56L1584,312.939Z" transform="translate(-1562.297 -312.9)"/></g></g></svg>