<svg xmlns="http://www.w3.org/2000/svg" xmlns:xlink="http://www.w3.org/1999/xlink" width="1018.727" height="555.331" viewBox="0 0 1018.727 555.331"><defs><style>.a{fill:#fff;}.b{fill:#3a86ff;}.av,.aw,.c,.n,.r,.t,.u,.v,.w{mix-blend-mode:multiply;}.as,.at,.av,.aw,.ax,.bf,.bg,.bh,.bj,.bk,.bp,.c,.m,.n,.o,.p,.q,.r,.s,.t,.u,.v,.w{isolation:isolate;}.d{fill:url(#a);}.av,.e{fill:url(#b);}.f{fill:url(#s);}.g{fill:url(#t);}.h{fill:url(#u);}.i{fill:url(#x);}.j{fill:url(#y);}.k{fill:url(#ac);}.l{fill:url(#ad);}.at,.bp,.m{mix-blend-mode:darken;}.m{fill:url(#ae);}.n{fill:url(#af);}.as,.bg,.bh,.o,.q{mix-blend-mode:hard-light;}.o{fill:url(#ag);}.p{mix-blend-mode:color-burn;fill:url(#ah);}.q{fill:url(#ai);}.r{fill:url(#aj);}.s{mix-blend-mode:screen;}.t{fill:url(#ak);}.u{fill:url(#al);}.v{fill:url(#am);}.w{fill:url(#an);}.x{fill:url(#ao);}.y{fill:url(#ap);}.z{fill:#fdffff;}.aa{fill:url(#aq);}.ab{fill:url(#ar);}.ac{fill:url(#as);}.ad{fill:url(#at);}.ae{fill:url(#au);}.af{fill:url(#av);}.ag{fill:url(#aw);}.ah{fill:url(#ax);}.ai{fill:url(#ay);}.aj{fill:url(#az);}.ak{fill:url(#ba);}.al{fill:url(#bb);}.am{fill:url(#bc);}.an{fill:url(#bd);}.ao{fill:url(#be);}.ap{fill:url(#bf);}.aq{fill:url(#bg);}.ar{fill:url(#bh);}.as{fill:url(#bi);}.au{fill:url(#bk);}.aw{fill:url(#bm);}.ax{mix-blend-mode:soft-light;}.ay{fill:url(#bn);}.az{fill:url(#bo);}.ba{fill:url(#bp);}.bb{fill:url(#bq);}.bc{fill:url(#br);}.bd{fill:url(#bs);}.be{fill:url(#bt);}.bf,.bj{mix-blend-mode:overlay;}.bf{fill:url(#bu);}.bg{fill:url(#bv);}.bh{fill:url(#bw);}.bi{fill:#29a6ff;}.bj{fill:url(#bx);}.bl{fill:#c6c6c6;}.bm{fill:#a5a5a5;}.bn{fill:#dbdbdb;}.bo{fill:url(#bz);}.bp{fill:url(#ca);}.bq{fill:url(#cb);}</style><linearGradient id="a" x1="0.5" y1="-0.233" x2="0.5" y2="0.973" gradientUnits="objectBoundingBox"><stop offset="0" stop-color="#86dfff"/><stop offset="0.989" stop-color="#29a6ff"/></linearGradient><linearGradient id="b" x1="0.5" y1="0.444" x2="0.5" y2="1.104" gradientUnits="objectBoundingBox"><stop offset="0" stop-color="#86dfff"/><stop offset="1" stop-color="#46d0ff"/></linearGradient><linearGradient id="s" x1="17.254" y1="0.444" x2="17.254" y2="1.104" xlink:href="#b"/><linearGradient id="t" x1="6.35" y1="0.444" x2="6.35" y2="1.104" xlink:href="#b"/><linearGradient id="u" x1="11.885" y1="0.444" x2="11.885" y2="1.104" xlink:href="#b"/><linearGradient id="x" x1="8.191" y1="0.444" x2="8.191" y2="1.104" xlink:href="#b"/><linearGradient id="y" x1="5.583" y1="0.444" x2="5.583" y2="1.104" xlink:href="#b"/><linearGradient id="ac" x1="12.149" y1="0.444" x2="12.149" y2="1.104" xlink:href="#b"/><linearGradient id="ad" x1="5.583" y1="0.444" x2="5.583" y2="1.104" xlink:href="#b"/><linearGradient id="ae" x1="0.477" y1="0.345" x2="0.508" y2="1.009" xlink:href="#b"/><linearGradient id="af" x1="0.495" y1="-0.033" x2="0.504" y2="1.04" gradientUnits="objectBoundingBox"><stop offset="0" stop-color="#1392fb"/><stop offset="0.306" stop-color="#40a9f7"/><stop offset="0.606" stop-color="#65bdf3"/><stop offset="0.847" stop-color="#7bc9f1"/><stop offset="1" stop-color="#84cef1"/></linearGradient><linearGradient id="ag" x1="0.262" y1="1.961" x2="0.596" y2="-0.091" gradientUnits="objectBoundingBox"><stop offset="0" stop-color="#86dfff" stop-opacity="0"/><stop offset="0.989" stop-color="#29a6ff"/></linearGradient><linearGradient id="ah" x1="0.488" y1="-0.03" x2="0.512" y2="1.03" xlink:href="#a"/><linearGradient id="ai" x1="0.404" y1="1.495" x2="0.517" y2="0.364" xlink:href="#a"/><linearGradient id="aj" x1="0.526" y1="0.704" x2="0.453" y2="0.13" xlink:href="#af"/><linearGradient id="ak" x1="0.569" y1="0.735" x2="0.378" y2="0.082" xlink:href="#af"/><linearGradient id="al" x1="0.558" y1="0.731" x2="0.396" y2="0.088" xlink:href="#af"/><linearGradient id="am" x1="0.551" y1="0.727" x2="0.407" y2="0.088" xlink:href="#af"/><linearGradient id="an" x1="0.585" y1="0.739" x2="0.349" y2="0.075" xlink:href="#af"/><radialGradient id="ao" cx="0.5" cy="0.5" r="0.5" gradientUnits="objectBoundingBox"><stop offset="0" stop-color="#2a2628"/><stop offset="1" stop-color="#706e6f" stop-opacity="0"/></radialGradient><linearGradient id="ap" x1="0.093" y1="-0.157" x2="0.888" y2="1.127" gradientUnits="objectBoundingBox"><stop offset="0" stop-color="#fff"/><stop offset="0.978" stop-color="#e2e1e6"/></linearGradient><linearGradient id="aq" x1="-0.345" y1="0.361" x2="0.688" y2="0.554" gradientUnits="objectBoundingBox"><stop offset="0" stop-color="#74aaf0"/><stop offset="1" stop-color="#1229eb"/></linearGradient><linearGradient id="ar" x1="-1.098" y1="-0.116" x2="1.115" y2="0.622" xlink:href="#aq"/><linearGradient id="as" x1="0.365" y1="-0.008" x2="1.147" y2="3.127" gradientUnits="objectBoundingBox"><stop offset="0" stop-color="#fac7d6"/><stop offset="0.661" stop-color="#fa99b8"/></linearGradient><linearGradient id="at" x1="-0.377" y1="-0.375" x2="0.816" y2="0.907" xlink:href="#as"/><linearGradient id="au" x1="-0.584" y1="-0.081" x2="-0.549" y2="1.002" gradientUnits="objectBoundingBox"><stop offset="0" stop-color="#0022c6"/><stop offset="0.661" stop-color="#00014e"/></linearGradient><linearGradient id="av" x1="1.442" y1="-0.773" x2="0.069" y2="0.847" xlink:href="#aq"/><linearGradient id="aw" x1="0.279" y1="0.12" x2="0.956" y2="1.478" xlink:href="#as"/><linearGradient id="ax" x1="1.383" y1="0.944" x2="0.12" y2="0.219" gradientUnits="objectBoundingBox"><stop offset="0" stop-color="#da6a82"/><stop offset="1" stop-color="#1229eb"/></linearGradient><linearGradient id="ay" x1="0.664" y1="1.612" x2="0.436" y2="0.141" xlink:href="#ax"/><linearGradient id="az" x1="-0.228" y1="0.729" x2="0.793" y2="0.434" xlink:href="#ax"/><linearGradient id="ba" x1="-0.481" y1="0.848" x2="0.622" y2="0.51" xlink:href="#ax"/><linearGradient id="bb" x1="0.865" y1="-0.412" x2="0.117" y2="1.145" xlink:href="#aq"/><linearGradient id="bc" x1="0.058" y1="-0.332" x2="0.547" y2="0.472" xlink:href="#aq"/><linearGradient id="bd" x1="0.443" y1="0.457" x2="1.204" y2="-0.469" xlink:href="#as"/><linearGradient id="be" x1="4.982" y1="-0.066" x2="5.409" y2="0.842" xlink:href="#as"/><linearGradient id="bf" x1="0.477" y1="-0.128" x2="0.558" y2="2.535" xlink:href="#au"/><linearGradient id="bg" x1="-0.032" y1="-0.956" x2="0.318" y2="0.2" xlink:href="#as"/><linearGradient id="bh" x1="0.443" y1="-2.149" x2="0.522" y2="1.65" xlink:href="#aq"/><linearGradient id="bi" x1="0.515" y1="-0.107" x2="0.484" y2="1.005" gradientUnits="objectBoundingBox"><stop offset="0" stop-color="#86dfff" stop-opacity="0"/><stop offset="0.989" stop-color="#c4d8e9"/></linearGradient><linearGradient id="bk" x1="-0.082" y1="-0.386" x2="1.11" y2="0.977" xlink:href="#a"/><linearGradient id="bm" x1="0.45" y1="0.853" x2="0.549" y2="0.153" xlink:href="#af"/><linearGradient id="bn" x1="12.027" y1="0.444" x2="12.027" y2="1.104" xlink:href="#b"/><linearGradient id="bo" x1="11.174" y1="0.444" x2="11.174" y2="1.104" xlink:href="#b"/><linearGradient id="bp" x1="10.896" y1="0.444" x2="10.896" y2="1.104" xlink:href="#b"/><linearGradient id="bq" x1="10.742" y1="0.444" x2="10.742" y2="1.104" xlink:href="#b"/><linearGradient id="br" x1="10.674" y1="0.444" x2="10.674" y2="1.104" xlink:href="#b"/><linearGradient id="bs" x1="10.69" y1="0.444" x2="10.69" y2="1.104" xlink:href="#b"/><linearGradient id="bt" x1="11.564" y1="0.444" x2="11.564" y2="1.104" xlink:href="#b"/><linearGradient id="bu" x1="0.5" y1="0.444" x2="0.5" y2="1.104" xlink:href="#a"/><linearGradient id="bv" x1="0.45" y1="0.853" x2="0.549" y2="0.153" xlink:href="#a"/><linearGradient id="bw" x1="0.45" y1="0.853" x2="0.549" y2="0.153" xlink:href="#ag"/><linearGradient id="bx" x1="0.614" y1="0.438" x2="-0.49" y2="1.401" gradientUnits="objectBoundingBox"><stop offset="0" stop-color="#fff" stop-opacity="0"/><stop offset="1" stop-color="#fff"/></linearGradient><linearGradient id="bz" x1="75.925" y1="-84.823" x2="77.484" y2="-84.823" xlink:href="#a"/><linearGradient id="ca" x1="0.185" y1="-0.497" x2="0.612" y2="1.143" xlink:href="#b"/><linearGradient id="cb" x1="0.769" y1="1.047" x2="-0.068" y2="0.124" xlink:href="#a"/></defs><g transform="translate(118.596 -698.781)"><path class="a" d="M299.347,1139.321,153.669,1199.3l-1.66-4.1,145.678-59.983Z"/><path class="a" d="M751.109,793.088,605.431,853.07l-1.66-4.1,145.678-59.983Z"/><rect class="b" width="157.543" height="0.999" transform="translate(103.513 1112.147) rotate(-22.407)"/><rect class="a" width="291.944" height="1" transform="translate(157.525 809.368) rotate(-22.259)"/><rect class="b" width="291.944" height="1" transform="translate(491.218 965.02) rotate(-22.256)"/><rect class="b" width="291.944" height="1" transform="translate(-118.596 1185.005) rotate(-22.257)"/><rect class="b" width="291.944" height="1" transform="translate(603.772 944.974) rotate(-22.258)"/><g transform="translate(-83.183 -112.07)"><g transform="translate(368.497 810.851)"><g class="c" transform="translate(16.506)"><path class="d" d="M459.76,810.851c-40.758,0-78.991,6.191-112.006,17.021V964.055C380.767,953.224,419,947.029,459.76,947.029c81.242,0,152.46,24.6,192.28,61.512,21.345-19.788,33.677-43.111,33.677-68.09C685.717,868.876,584.552,810.851,459.76,810.851Z" transform="translate(-347.754 -810.851)"/><g transform="translate(22.956 21.149)"><path class="e" d="M372.025,926.786q-5.047,1.248-10.067,2.649V829.8q5.018-1.345,10.067-2.537Z" transform="translate(-361.958 -821.89)"/><path class="e" d="M392.1,916q-5.118.764-10.216,1.679V835.98q5.1-.87,10.216-1.589Z" transform="translate(-349.683 -817.496)"/><path class="e" d="M403.091,920.251q-5.139.5-10.269,1.152V824.983q5.127-.6,10.269-1.046Z" transform="translate(-342.941 -823.937)"/><path class="e" d="M412.957,908.156q-5.154.264-10.3.68V842.259q5.144-.38,10.3-.608Z" transform="translate(-336.88 -813.022)"/><path class="e" d="M422.606,913q-5.156.034-10.313.22V833.185q5.156-.141,10.313-.131Z" transform="translate(-330.944 -818.32)"/><path class="e" d="M441.928,919.575q-5.142-.427-10.292-.7v-94.55q5.149.33,10.292.808Z" transform="translate(-319.026 -823.7)"/><path class="e" d="M470.749,897.865q-5.059-1.125-10.143-2.1v-24.7q5.084.984,10.143,2.122Z" transform="translate(-301.176 -794.898)"/><path class="e" d="M461,912.866q-5.1-.885-10.209-1.621v-69.6q5.113.773,10.209,1.7Z" transform="translate(-307.224 -813.029)"/><path class="e" d="M479.789,908.927q-5.016-1.345-10.065-2.537V858.941q5.047,1.219,10.065,2.592Z" transform="translate(-295.558 -802.369)"/><path class="e" d="M451.094,908.158q-5.122-.647-10.259-1.143V845.374q5.137.531,10.259,1.212Z" transform="translate(-313.358 -810.729)"/><path class="e" d="M432.666,896.416q-5.151-.206-10.308-.259V860.41q5.154.073,10.308.3Z" transform="translate(-324.742 -801.464)"/><path class="e" d="M371.23,858.154v49.737q5.059-1.173,10.143-2.195V856.014Q376.289,857.008,371.23,858.154Z" transform="translate(-356.245 -804.173)"/></g><g transform="translate(231.804 43.937)"><g class="c"><path class="e" d="M587.149,902.769c-19.454-33.1-57.349-59.321-95.965-64.732v14.545c38.717,5.679,74.828,23.53,95.928,56.047C587.127,906.344,587.135,905.185,587.149,902.769Z" transform="translate(-491.184 -838.037)"/><path class="e" d="M586.984,920.073c-28.675-26.817-57.323-37.632-95.8-43.489v6.392c38.466,5.244,67.526,16.15,95.8,43.127C586.984,923.695,586.984,922.489,586.984,920.073Z" transform="translate(-491.184 -814.286)"/><path class="e" d="M503.4,864.388c-4.939-1.3-7.449-1.876-12.212-1.833v7.3c4.772,0,7.176.54,11.969,1.762C503.14,869.228,503.257,867.964,503.4,864.388Z" transform="translate(-491.184 -822.932)"/><path class="e" d="M545.644,879.418c-13.97-8.254-29.787-10.667-45.1-15.263-.181,3.547-.335,4.811-.318,7.182,15.434,4.469,31.324,6.573,45.4,14.843C545.609,883.767,545.628,882.568,545.644,879.418Z" transform="translate(-485.616 -821.944)"/><path class="e" d="M562.118,900.143c-9.178-12.207-14.041-14.1-30.684-24.627,0,3.143.013,4.423-.026,6.755,16.076,10.319,20.632,12.562,30.67,23.8C562.078,903.676,562.1,902.459,562.118,900.143Z" transform="translate(-466.4 -814.944)"/><path class="f" d="M543.067,902.236c5.269,4.462,7.951,7.038,11.938,12.527-.011,2.421-.016,4.116-.027,7.835a64.166,64.166,0,0,0-12.1-12.486C542.954,906.362,542.991,904.654,543.067,902.236Z" transform="translate(-459.334 -798.481)"/><path class="g" d="M513.025,888.208c17.994,4.286,30.2,10.127,45.52,20.294-.061,2.435-.092,4.155-.155,7.932-14.946-9.939-27.122-15.922-44.478-20.8C513.557,892.337,513.379,890.779,513.025,888.208Z" transform="translate(-477.727 -807.124)"/><path class="h" d="M491.184,883.482c12.323.006,19.2,1.923,30.86,6.12.006,2.416.01,3.853.016,6.878-11.489-4.365-18.025-5.931-30.877-6.642Z" transform="translate(-491.184 -810.036)"/><path class="e" d="M521.194,859.177c-9.538-3.043-15.405-5.9-30.01-8.281V862.12c9.957,1.778,19.229,4.6,29.5,7.32C520.881,865.456,520.989,863.284,521.194,859.177Z" transform="translate(-491.184 -830.114)"/><path class="e" d="M574.339,902.48c-15-21.718-35.951-38.249-61.792-45.672-.123,4.027-.189,6.156-.306,10.065,22.878,5.477,49.128,21.252,62.1,41.11Z" transform="translate(-478.209 -826.471)"/><path class="i" d="M533.385,882.957c13.665,8.682,18.77,11.564,28.153,22.579v6.054c-9.383-11.685-15.879-15.452-28.52-23.321C533.165,886.172,533.238,885.121,533.385,882.957Z" transform="translate(-465.408 -810.359)"/><path class="j" d="M491.184,869.324c20.779,2.667,44.829,7.989,62.933,18.856.015,2.3.021,3.423.037,5.658-18.631-9.752-42.073-16.01-62.97-18.111Z" transform="translate(-491.184 -818.759)"/><path class="e" d="M503.716,892.711a110.334,110.334,0,0,0-12.532-1.972v6.872c5.346.958,7.885,1.456,12.769,2.658C503.858,897.278,503.811,895.728,503.716,892.711Z" transform="translate(-491.184 -805.565)"/><path class="e" d="M545.674,909.2c-15.014-5.75-29.495-12.737-45.086-16.877.094,3.054.141,4.627.233,7.654,15.837,4.6,30.162,12.659,44.908,19.841C545.708,915.676,545.7,913.427,545.674,909.2Z" transform="translate(-485.39 -804.589)"/><path class="e" d="M559.725,926.321c-11.313-11.054-18.794-16.417-28.549-22.148,0,4.341.006,6.662.011,10.912,9.915,6.038,18.9,12.1,24.4,17.411C557.98,927.867,557.527,929.713,559.725,926.321Z" transform="translate(-466.543 -797.287)"/><path class="k" d="M532.494,915.413c10.065,6.187,11.745,6.927,19.728,13.553,0,0-1.844,2.3-3.877,4.7-3.171-3.748-5.737-3.871-15.824-10.24C532.51,920.987,532.505,919.246,532.494,915.413Z" transform="translate(-465.731 -790.362)"/><path class="l" d="M491.184,897.436c23.127,5.723,42.342,14.718,62.975,26.671-.011,3.78-.016,5.5-.026,7.911-20.279-13.044-39.764-22.014-62.949-28.234Z" transform="translate(-491.184 -801.438)"/></g></g><path class="m" d="M569.709,1070.8a8.021,8.021,0,0,1,.708-.716l-1.044-34.166c.218-2.337.336-4.688.336-7.058,0-2.489-.134-4.96-.377-7.415V895.676h0c-2.2,22.148-14.1,42.8-33.3,60.6v140.678A106.885,106.885,0,0,0,569.709,1070.8Z" transform="translate(-231.746 -758.586)"/></g><path class="n" d="M449.341,875.79a360.2,360.2,0,0,0-44.321,2.715v69.228a360.2,360.2,0,0,1,44.321-2.72c58.994,0,112.263,14.044,150.21,36.62V912.409C561.6,889.836,508.334,875.79,449.341,875.79Z" transform="translate(-295.964 -770.839)"/><path class="o" d="M436.344,839.052V914.04c65.25,1.354,123.21,17.134,163.955,42.733V882.13C559.653,856.393,501.657,840.5,436.344,839.052Z" transform="translate(-276.663 -793.475)"/><path class="p" d="M475.952,910.066v43.57a157.068,157.068,0,0,1,41.491,16.637V926.7A157.062,157.062,0,0,0,475.952,910.066Z" transform="translate(-252.259 -749.72)"/><path class="q" d="M479.925,864.435a259.578,259.578,0,0,0-64.336-7.861c-28.4,0-55.043,4.313-78.049,11.859v94.9c23-7.547,49.647-11.864,78.049-11.864a259.576,259.576,0,0,1,64.336,7.863Z" transform="translate(-337.541 -782.679)"/></g><g transform="translate(314.084 829.377)"><path class="r" d="M303.873,879.159V918.25c20.076-29.333,65.692-51.308,121.166-56.887V822.314C369.584,827.891,323.962,849.844,303.873,879.159Z" transform="translate(-303.873 -822.314)"/><g class="s" transform="translate(4.848 5.417)"><path class="t" d="M323.99,874.964a176.74,176.74,0,0,1,21.367-10.51V835.868a156.864,156.864,0,0,0-21.367,11.3Z" transform="translate(-296.326 -819.38)"/><path class="u" d="M365.063,829.322A211.244,211.244,0,0,0,342.19,836.6v28.755a224.863,224.863,0,0,1,22.873-6.953Z" transform="translate(-285.112 -823.413)"/><path class="v" d="M361.322,829.658v29.149q11.411-2.427,23.47-3.858V825.666C376.745,826.644,368.9,827.987,361.322,829.658Z" transform="translate(-273.324 -825.666)"/><path class="w" d="M326.49,846.313A92.05,92.05,0,0,0,306.873,865.9v23.963a117.415,117.415,0,0,1,19.617-16.305Z" transform="translate(-306.873 -812.944)"/></g></g><g transform="translate(423.521 1192.124)"><path class="x" d="M490.4,1058.544c-65.621,0-118.815,23.51-118.815,52.512V1121.8c0,29,53.194,52.512,118.815,52.512s118.816-23.51,118.816-52.512v-10.747C609.218,1082.054,556.022,1058.544,490.4,1058.544Z" transform="translate(-371.587 -1039.507)"/><path class="y" d="M490.4,1046.765c-65.621,0-118.815,23.51-118.815,52.512v10.747c0,29,53.194,52.512,118.815,52.512s118.816-23.51,118.816-52.512v-10.747C609.218,1070.275,556.022,1046.765,490.4,1046.765Z" transform="translate(-371.587 -1046.765)"/><path class="z" d="M490.4,1046.765c-65.621,0-118.815,23.51-118.815,52.512s53.194,52.512,118.815,52.512,118.816-23.51,118.816-52.512S556.022,1046.765,490.4,1046.765Z" transform="translate(-371.587 -1046.765)"/></g><g transform="translate(376.01 852.604)"><path class="aa" d="M467.273,1093.262s-7.6,21.07-8.047,21.944-1.537,3.976,1.564,7.872l19-29.288-6.352-6.462Z" transform="translate(-270.42 -682.252)"/><path class="ab" d="M462.022,1048.659s7.428,21.9,7.659,22.857,1.442,4.01,6.335,4.924l-4.813-34.576-7.89-.111Z" transform="translate(-268.355 -710.334)"/><path class="ac" d="M423.777,929.683s-20.414,11.056-27.793,9.38c0,0-1.537.305-9.923-13.395s-30.841-53.281-30.841-53.281c-.487-1.262-3.215-5.969-3.366-7.95s5.424-9.731,5.728-12.724-.246-9.5-2.082-12.761-3.507-4.186-2.972,5.445-4.714,13.18-5.438,12.855-.9-1.1-2.248-4.664-2.8-4.215-2.639-.318,1.852,7.093,1.382,11.229c-.3,2.673,1.071,4.9,2.248,7.2.107.208.212.42.315.632.162.333,1.914,3.568,2.5,4.992.057.22.094.423.174.664,0,0,15.374,46.964,25.388,67.773S391.027,962.4,398.888,961.5s33.226-11.539,33.226-11.539Z" transform="translate(-342.19 -836.686)"/><path class="ad" d="M402.9,900.644s-3.664-3.054-5.918-5.089c-4.351,2.132-11.286,5.277-16.932,6.683,0,0-2.5,11.313-.309,22.3,6.329-1.618,16.493-5.5,23.159-8.152Z" transform="translate(-319.604 -800.414)"/><path class="ae" d="M461.874,936.309c-4.341-.157-4.207-21.669-6.23-17.826-1,1.9-1.453,4.034-2.272,6.017-1.873,4.538-5.539,8.053-9.105,11.428a25.549,25.549,0,0,1-6.444,4.91c-3.943,1.847-8.53,1.556-12.84.934a96.344,96.344,0,0,1-16.448-3.871c-4.944-1.634-9.915-3.777-13.454-7.6a18.907,18.907,0,0,1-3.386-19.922c3.389-7.782,9.495-12.124,12.147-20.467,3.57-11.224,2.846-25.078,9.312-34.949a29.583,29.583,0,0,1,16.372-12.28,23.126,23.126,0,0,1,10.688-.514c2.33.457,4.734,1.479,7.148,1.236,2.494-.252,4.525-1.723,7.1-1.862,12.05-.648,20.216,9.936,24.307,19.683A60.411,60.411,0,0,1,481,901.969C477.341,913.753,471.5,928.068,461.874,936.309Z" transform="translate(-312.591 -833.708)"/><path class="af" d="M381.7,901.276s49.653-19.9,58.681-7.738-21.823,33.165-51.109,36.412C389.269,929.949,380.537,919.461,381.7,901.276Z" transform="translate(-317.912 -804.082)"/><path class="ag" d="M441.259,877.62c.021,6.217,4.386,17.686,4.386,17.686-5.539,4.608-17.353,12.283-23.612,12.281-5.227,0-5.466-7.363-5.466-7.363l1.417-3.53s5.967-4.016,3.543-12.52Z" transform="translate(-296.362 -811.464)"/><path class="ah" d="M391.484,942.884s-5.041,13.661-4.941,26.421,9.346,48.047,19.473,76.976,17.322,48.606,26.39,59.935,16.777,9.973,31.625,23.626,39.57,35.989,47.683,52.42c0,0,3.263-.839,6.164-5.269,0,0-5.805-55.36-61.684-91.085,0,0-4-.748-10.267-22.636s-11.182-50.98-10.885-59.211,3.929-49.81,3.929-49.81S414.8,947.246,391.484,942.884Z" transform="translate(-314.862 -771.252)"/><path class="ai" d="M499.3,1144.272c7.384,10.668,13.783,22.528,16.732,35.035a16.086,16.086,0,0,0,1.842-2.314s-5.805-55.36-61.684-91.085c0,0-4-.748-10.267-22.636s-11.182-50.98-10.885-59.211,3.929-49.81,3.929-49.81-24.169-7.006-47.487-11.368c0,0-5.041,13.661-4.941,26.421.063,8.092,3.809,25.251,9.122,44.1,5.3,4.147,14.427,9.847,28.268,14.34,6.823,8.037,9.648,18.667,11.47,28.827,1.773,9.9,1.686,20.373,7.916,28.759,4.147,5.581,9.669,9.952,14.969,14.452C473.709,1112.872,487.791,1127.641,499.3,1144.272Z" transform="translate(-314.862 -771.252)"/><path class="aj" d="M448.7,954.756a120.287,120.287,0,0,0,5.579,15.027c4.32,10.13,12.039,23.691,1.689,39.156s-24.692,42.3-35.4,53.04-5.718,12.292-5.718,12.292,71.974-2.7,100.339,28.4c0,0,1.351,2.738-1.291,6.906,0,0-75.922-16.064-103.5-8.171,0,0-20.019,4.024-28.918-8.205s.567-31.277,5.779-40.867,26.393-54.725,26.393-54.725S390.313,982.677,391.3,966.7s5.56-23.819,5.56-23.819S445.758,953.895,448.7,954.756Z" transform="translate(-320.234 -771.252)"/><path class="ak" d="M505.295,1098.884c-28.375-30.979-100.371-28.291-100.371-28.291s-4.994-1.55,5.718-12.246,25.058-37.432,35.411-52.839,2.634-28.916-1.687-39.007a119.635,119.635,0,0,1-5.582-14.97c-.8-.231-4.973-1.207-10.621-2.5l-.359.168s21.487,31.138,8.957,55.221-44.864,60.04-42.71,67.553,15.628,6.862,33.951,9.333S482.892,1080.715,505.295,1098.884Z" transform="translate(-310.299 -767.465)"/><path class="al" d="M464.956,894.19s12.352,9.859,16.632,12.236-6.949,17.553-8.994,24.27-17.826,21.511-28.013,33.8-6.2,24.178-6.2,24.178c-26.641.638-49.351-11.3-49.351-11.3s14.082-33.647,10.34-41.052-5.914-16.881.141-24.029,17.223-16.1,22.057-18.747,13.379-2.575,13.379-2.575.614,13.147,26.705-4.069Z" transform="translate(-313.327 -805.744)"/><path class="am" d="M467.548,922.521c1.435-4.718,7.387-13.6,9.328-19.3-6.628-3.145-13.408-4.849-19.03-.141A74.365,74.365,0,0,0,444.373,917.4c-3.619,5.22-3.926,10.353-10.941,12.474-3.62,1.094-7.473,1.06-11.253.929-8.178-.281-16.344-.97-24.454-2.059a9.684,9.684,0,0,1-.5,3.911,184.667,184.667,0,0,1,24.535,5.71,14.616,14.616,0,0,1,4.844,2.187c3.446,2.7,1.307,7.678-2.043,9.194-1.341.608-3.832.661-4.721,1.964-1.372,2.009.373,3.814,2.067,4.506a3.8,3.8,0,0,1,2.193,2.526,1.335,1.335,0,0,1-.419,1.387c-2.461,1.75-6.734,2.609-9.7,3.134-1.828.325-12.57,3.431-13.7,2.385q7.328,6.8,14.768,13.464a96.244,96.244,0,0,0,18.283,1.387s-3.989-11.887,6.2-24.178S465.5,929.238,467.548,922.521Z" transform="translate(-308.281 -797.569)"/><path class="an" d="M474.258,922.36s-16.637,33.58-19.995,34.135-63.471-16.6-70.762-20.334l-8.669-9.02c-3.468-3.607-6.255-2.945-.669,3.573,0,0-7.316-.432-10.149-2.686s-6.544-2.984-4.677,2.856,1.047,8.645,4.084,9.805,16.965,1.476,18.77,2.482c0,0,46.285,25.959,64.678,32.95,0,0,13.3,5.742,16.961,1.988s27.411-32.6,32.373-42.543Z" transform="translate(-331.935 -783.898)"/><path class="ao" d="M455.751,879.9a3.973,3.973,0,0,0-3.895-2.565c-1.965.121-4.516,1.432-5.59,6.961,0,0-.155-11.612-3.507-18.225s-11.214-22.479-25.545-12.147c0,0-10.073,15.428-4.908,31.8s7.9,20.564,14.815,20.449,17.642-8.417,21.275-12.931C448.4,893.239,458.419,886.459,455.751,879.9Z" transform="translate(-299.895 -828.164)"/><path class="ap" d="M411.351,881.623s10.828-1.492,24.737-20.011c0,0-2.014,17.592,10.568,25.02,0,0,9.484-20.357-3.029-33.126s-21.508-7.329-26.106-1.943S407.812,867.983,411.351,881.623Z" transform="translate(-300.303 -831.154)"/><path class="aq" d="M431.027,925.36s-3.016,6.33-6.489,12.928a70.4,70.4,0,0,0,26.489,2.982c.517-.866,1.639-2.4,1.986-3.1Z" transform="translate(-291.451 -782.049)"/><path class="ar" d="M426.542,945.615s9.9-47.363,25.033-48.05c18.553-.844,17.086,32.848,2.7,58.563C454.274,956.128,440.662,957.133,426.542,945.615Z" transform="translate(-290.216 -799.185)"/></g><path class="as" d="M608.5,917.017H371.587v262.2s11.8,56.21,142.86,48.795c89.158-5.046,94.055-48.795,94.055-48.795Z" transform="translate(51.933 65.414)"/><g transform="translate(287.3 859.437)"><g class="at"><path class="e" d="M519.158,939.04l-.328.123q-3.731,1.387-7.612,2.646l-.73.234q-1.583.507-3.192.994c-.259.078-.514.157-.773.233q-3.908,1.166-7.945,2.2l-.731.183q-1.636.414-3.29.806l-1.023.239q-1.67.385-3.36.752c-.247.052-.491.108-.739.16q-2.08.441-4.186.848c-.16.031-.322.06-.48.089q-1.818.349-3.657.667-.587.1-1.175.2-1.578.267-3.172.516c-.383.06-.764.12-1.148.178q-2.08.313-4.183.6l-.065.01q-2.153.284-4.333.533c-.388.044-.781.086-1.17.128q-1.607.177-3.224.335-.681.068-1.366.131-1.7.155-3.412.288c-.336.027-.671.057-1.008.082q-2.2.162-4.422.291c-.312.018-.625.031-.937.047q-1.767.094-3.546.167c-.474.019-.95.036-1.427.052q-1.627.056-3.26.092c-.446.01-.892.021-1.338.029q-2.264.039-4.541.042t-4.54-.042c-.448-.008-.892-.02-1.338-.029q-1.636-.036-3.261-.092c-.477-.016-.952-.032-1.427-.052q-1.779-.07-3.546-.167c-.312-.016-.625-.029-.936-.047q-2.223-.128-4.423-.291c-.338-.026-.672-.055-1.008-.082q-1.711-.133-3.412-.288c-.456-.042-.91-.086-1.366-.131q-1.617-.158-3.224-.335c-.389-.042-.781-.084-1.17-.128q-2.177-.252-4.333-.533l-.065-.01q-2.1-.281-4.183-.6c-.383-.058-.764-.118-1.148-.178q-1.593-.25-3.172-.516c-.391-.066-.784-.133-1.175-.2q-1.838-.32-3.656-.667c-.16-.029-.322-.058-.48-.089q-2.109-.407-4.187-.848c-.247-.052-.49-.108-.735-.16q-1.692-.366-3.363-.752l-1.021-.239q-1.656-.393-3.292-.806c-.244-.062-.488-.12-.731-.183q-4.036-1.035-7.945-2.2c-.257-.076-.514-.155-.771-.233q-1.61-.487-3.194-.994l-.73-.234q-3.879-1.26-7.612-2.646l-.326-.123q-1.682-.628-3.333-1.282l-.6-.238q-1.687-.676-3.344-1.375l-.2-.082q-3.634-1.544-7.093-3.208l-.377-.184q-1.566-.756-3.093-1.537l-.305-.157q-3.4-1.743-6.6-3.6l-.049-.029q-1.542-.894-3.035-1.817c-.091-.055-.181-.112-.271-.168q-2.318-1.433-4.519-2.924t-4.288-3.042l-.171-.128q-1.341-1-2.633-2.023l-.079-.063q-2.71-2.153-5.191-4.4C295.786,899.487,287.3,883.737,287.3,866.85v91.856c0,47.542,67.2,86.083,150.085,86.083,30.241,0,58.387-5.135,81.949-13.96V938.974Z" transform="translate(-287.3 -824.933)"/><path class="au" d="M306.275,840.914c-12.081,12.406-18.975,26.7-18.975,41.916s6.895,29.509,18.975,41.915Z" transform="translate(-287.3 -840.914)"/><path class="av" d="M437.28,1017.8c30.241,0,58.387-5.135,81.949-13.96v-8.661c-31.711,1.965-14.494-34.965-32.388-37.092-18.605-2.213-6.713,34.534-30.98,41.538s-17.753-60.875-32.446-65.734S397.7,981.31,384.9,980.132s-7.665-40.842-18.246-42.606-16.894,29.779-30.421,26.88-2.095-42.893-12.014-52.368-18.094,32.641-27.534,30.434c-3.21-.75-6.4-2.982-9.21-5.6C292.121,982.017,357.41,1017.8,437.28,1017.8Z" transform="translate(-287.195 -797.948)"/></g><g transform="translate(34.754 155.947)"><path class="aw" d="M308.8,937.407v57.714c28.583,21.954,71.246,37.525,120.314,42.313V982.842C379.317,977.277,336.484,960.557,308.8,937.407Z" transform="translate(-308.804 -937.407)"/><g class="ax" transform="translate(7.885 34.998)"><path class="ay" d="M318.153,982.092q-2.269-1.2-4.47-2.382V960c1.466.036,2.959.05,4.47.039Z" transform="translate(-313.683 -958.485)"/><path class="az" d="M327.571,987.94q-2.434-1.152-4.827-2.334v-22.83q2.39.031,4.827-.032Z" transform="translate(-308.1 -956.793)"/><path class="ba" d="M332.9,994.066q-2.495-1.074-4.957-2.2V959.933q2.461-.373,4.957-.871Z" transform="translate(-304.898 -959.062)"/><path class="bb" d="M337.731,993.248q-2.524-.977-5.031-2.019,0-12.708,0-25.419,2.507-.075,5.031-.267Z" transform="translate(-301.966 -955.068)"/><path class="bc" d="M342.477,998.792q-2.533-.858-5.065-1.8,0-17.406,0-34.812,2.529-.5,5.065-1.13Z" transform="translate(-299.062 -957.836)"/><path class="bd" d="M347.413,993.271q-2.524-.725-5.057-1.535V974.071q2.533.129,5.057.15Z" transform="translate(-296.016 -949.814)"/><path class="be" d="M317.824,967.2q0,5.813,0,11.627,2.3,1.2,4.656,2.393,0-6.463,0-12.924Q320.124,967.768,317.824,967.2Z" transform="translate(-311.132 -954.05)"/></g></g><path class="bf" d="M360.621,1001.188a136.568,136.568,0,0,0,41.113,6.091,146.234,146.234,0,0,0,17.926-1.1V954.232c-.386.047-.769.1-1.156.142-.22.026-.441.049-.663.073q-.909.1-1.823.189c-.257.026-.516.05-.773.074-.642.058-1.285.111-1.93.163l-.57.045c-.831.061-1.663.116-2.5.165l-.528.027q-1,.053-2.006.094l-.808.029q-.919.031-1.844.052c-.252,0-.5.013-.756.016-.853.015-1.708.024-2.568.024s-1.715-.01-2.568-.024c-.252,0-.5-.011-.756-.016q-.926-.019-1.844-.052l-.808-.029q-1.006-.041-2.006-.094l-.53-.027q-1.256-.073-2.5-.165l-.57-.045c-.646-.052-1.29-.105-1.93-.163-.259-.024-.516-.048-.773-.074q-.916-.09-1.823-.189c-.221-.024-.443-.047-.663-.073q-1.232-.14-2.45-.3l-.037,0q-1.19-.158-2.364-.338c-.218-.032-.433-.066-.65-.1q-.9-.141-1.8-.291c-.221-.037-.443-.074-.663-.113q-1.04-.182-2.069-.378c-.091-.016-.181-.032-.271-.05q-1.193-.23-2.369-.48c-.139-.029-.276-.061-.415-.09q-.955-.206-1.9-.425l-.577-.136q-.938-.22-1.862-.456c-.137-.034-.276-.068-.414-.1q-2.284-.584-4.493-1.244l-.436-.132c-.528-.16-1.052-.325-1.574-.49Z" transform="translate(-242.123 -774.169)"/><path class="bg" d="M292.809,954.247v45.792c22.678,17.417,56.528,29.773,95.46,33.571V990.3C348.755,985.882,314.771,972.615,292.809,954.247Z" transform="translate(-283.906 -771.084)"/><path class="bh" d="M296.653,869.076v60.851c30.136,23.146,75.117,39.563,126.852,44.611V916.98C371,911.114,325.837,893.485,296.653,869.076Z" transform="translate(-281.537 -823.562)"/></g><g transform="translate(349.861 858.393)"><path class="bi" d="M389.444,915.211c-.17-.231-.4-.554-.672-.97q-3.219-.691-6.439-1.424-.8.25-1.566.472Q385.106,914.291,389.444,915.211Z" transform="translate(-292.271 -795.566)"/><path class="bi" d="M396.9,915.837q-3.758-.771-7.543-1.558c-.787.123-1.574.228-2.361.327q4.885,1.033,9.741,2.023l2.852.587c-.129-.3-.26-.6-.381-.9Z" transform="translate(-288.433 -794.666)"/><path class="bi" d="M388.062,949.71a148.827,148.827,0,0,1-18.119-7.617c-24.852-12.564-41.319-33.323-42.978-54.175-1.406-17.676,7.387-33.926,25.432-47l-.474-.655c-18.285,13.243-27.195,29.744-25.765,47.715,1.681,21.131,18.319,42.141,43.419,54.831a151.07,151.07,0,0,0,19.189,8C388.534,950.464,388.3,950.09,388.062,949.71Z" transform="translate(-326.01 -840.268)"/><path class="bi" d="M536.229,978.96c-7.174-17.857-19.691-33.286-36.582-45.341-.052.094-.1.189-.154.284,0,0-.3.019-.847.018,38.977,27.657,53.4,73.01,36.691,119.622-13.831,38.589-56.842,65.648-81.25,78.344-4.931,2.565-10.007,5.1-14.917,7.546-19,9.477-38.647,19.278-54.851,33.411-18.258,15.926-35.749,43.119-30.088,71.678,2.92,14.728,11.552,27.555,19.9,39.961l.785,1.165q1.644,2.446,3.242,4.889h.962q-1.733-2.672-3.535-5.34l-.784-1.165c-8.3-12.339-16.892-25.1-19.78-39.667-5.6-28.221,11.74-55.135,29.826-70.912,16.128-14.067,35.727-23.843,54.681-33.3,4.913-2.452,9.993-4.984,14.93-7.552,24.512-12.748,67.713-39.94,81.638-78.789C545.417,1027.823,545.462,1001.939,536.229,978.96Z" transform="translate(-309.288 -782.75)"/></g></g><g transform="translate(-9 56)"><path class="bj" d="M268.139,1029.2l254.3-112.185v44.836L285.99,1063.3l-17.851-17.265Z"/><g class="bk"><path class="bl" d="M306.357,1032.258l-21.861,9.175.012,22.26,21.86-9.175Z"/><path class="bm" d="M284.5,1041.433l-18.086-12.308.012,22.26,18.086,12.308Z"/><path class="bn" d="M288.271,1019.95l-21.86,9.175,18.086,12.308,21.861-9.175Z"/></g><path class="bj" d="M527.977,1016.17,909.131,848.027v67.2l-354.4,152.049L527.977,1041.4Z"/><g class="bk"><path class="bl" d="M585.259,1020.751,552.494,1034.5l.018,33.364,32.765-13.751Z"/><path class="bm" d="M552.494,1034.5l-27.107-18.448.018,33.364,27.107,18.448Z"/><path class="bn" d="M558.152,1002.3l-32.765,13.751,27.107,18.448,32.765-13.751Z"/></g></g><path class="bo" d="M286.1,814.82l-7.349,11.991-1.677-9.275Z"/><path class="bp" d="M574.346,875.472v22.361l10.93-12.864Z"/><path class="bq" d="M349.266,1016.942l-5.346,12.183,14.912-6.091Z"/></g></svg>